<svg width="303" height="270" viewBox="0 0 303 270" fill="none" xmlns="http://www.w3.org/2000/svg">
<path d="M53.1238 109.78C82.4632 109.78 106.248 85.2052 106.248 54.8902C106.248 24.5752 82.4632 0 53.1238 0C23.7843 0 0 24.5752 0 54.8902C0 85.2052 23.7843 109.78 53.1238 109.78Z" fill="#B1B4C5"/>
<path d="M53.1238 104.914C82.4632 104.914 106.248 81.428 106.248 52.4569C106.248 23.4857 82.4632 0 53.1238 0C23.7843 0 0 23.4857 0 52.4569C0 81.428 23.7843 104.914 53.1238 104.914Z" fill="url(#paint0_linear_17_3)"/>
<path d="M53.1238 94.6387C75.6471 94.6387 93.9058 76.2374 93.9058 53.5384C93.9058 30.8393 75.6471 12.438 53.1238 12.438C30.6006 12.438 12.3419 30.8393 12.3419 53.5384C12.3419 76.2374 30.6006 94.6387 53.1238 94.6387Z" fill="#E1E4ED"/>
<path d="M68.9693 42.8968C68.6825 42.7828 68.3744 42.7329 68.0664 42.7506C67.6499 42.7806 67.3124 42.9519 67.1126 43.2322C65.937 44.9005 64.9742 48.0488 64.1972 50.5793C63.8406 51.7499 63.3622 53.3161 63.0156 54.0591C62.6541 51.9762 63.0626 44.3488 63.2214 41.4117L63.2234 41.3647C63.3332 39.3239 63.3482 38.9654 63.3233 38.8082C63.1495 37.6886 62.706 36.9536 62.0059 36.6252C61.2987 36.2917 60.3789 36.4389 59.3891 37.0428C58.8927 37.3462 58.7549 38.3896 58.3294 43.1181L58.3274 43.1381C58.0927 45.7367 57.5523 51.7179 56.8882 52.7142C56.1391 51.3203 55.1063 43.4015 54.6609 39.9748C54.3493 37.5745 54.1675 36.1956 54.0456 35.779C53.789 34.9078 52.7043 34.1658 51.6306 34.1238C50.7367 34.0797 50.0036 34.5393 49.653 35.3394C48.9988 36.0764 49.2306 38.5228 49.9547 44.3157C50.2982 47.0735 51.0094 52.7683 50.5619 53.4082C49.67 53.309 48.1379 49.7422 46.0085 42.8016C45.4112 40.857 45.2265 40.2732 45.0427 40.0178C44.6811 39.1256 43.4517 38.4377 42.35 38.5158C42.2571 38.5222 42.1648 38.5342 42.0733 38.5518C41.4961 38.668 40.1797 39.2057 40.4603 41.6861C41.2384 45.1258 42.0823 47.6513 42.9023 50.1026L42.9183 50.1527C43.4087 51.6197 43.8721 53.0066 44.3036 54.5467C45.3184 58.1817 44.9238 60.4368 44.9189 60.4618C44.8849 60.6942 44.814 60.8364 44.7081 60.8854C44.6629 60.9051 44.6145 60.9163 44.5653 60.9185C44.2437 60.9415 43.7613 60.7252 43.5116 60.585C42.9443 59.4855 40.1157 54.2463 37.5519 53.5203L37.461 53.4943L37.3681 53.5023C36.4273 53.5924 35.7361 53.9529 35.3136 54.5718C34.6445 55.5511 34.9211 56.7988 34.989 57.0492L35.027 57.1393C35.047 57.1763 37.1034 60.9695 37.4211 62.734C37.6957 64.247 39.115 65.8863 40.2556 67.2041L40.3025 67.2582C40.6751 67.6887 40.9967 68.0613 41.2494 68.4057C44.5613 71.9025 49.7969 74.8426 49.8398 74.8666C50.493 75.3543 50.8566 75.8259 50.8945 76.2315C50.9127 76.3847 50.8708 76.5391 50.7777 76.662L50.6638 76.7822L51.3879 77.4942L65.2029 76.5128L65.7922 73.7791C67.613 66.0635 67.2325 59.4845 67.2265 59.4404C67.2335 59.1981 67.7438 56.8569 68.1553 54.9663L68.1663 54.9183C68.9853 51.1501 70.0021 46.4627 70.1978 44.6792C70.2827 43.9172 69.8003 43.2162 68.9693 42.8968Z" fill="#8A90AC"/>
<path d="M249.38 109.78C278.993 109.78 303 85.2052 303 54.8902C303 24.5752 278.993 0 249.38 0C219.766 0 195.76 24.5752 195.76 54.8902C195.76 85.2052 219.766 109.78 249.38 109.78Z" fill="#B1B4C5"/>
<path d="M249.38 104.914C278.993 104.914 303 81.428 303 52.4569C303 23.4857 278.993 0 249.38 0C219.766 0 195.76 23.4857 195.76 52.4569C195.76 81.428 219.766 104.914 249.38 104.914Z" fill="url(#paint1_linear_17_3)"/>
<path d="M249.381 94.6387C272.115 94.6387 290.544 76.2374 290.544 53.5384C290.544 30.8393 272.115 12.438 249.381 12.438C226.647 12.438 208.217 30.8393 208.217 53.5384C208.217 76.2374 226.647 94.6387 249.381 94.6387Z" fill="#E1E4ED"/>
<path d="M238.635 53.1859L243.08 46.9433C241.233 46.6359 237.839 46.5678 235.059 49.3436C230.677 53.7196 228.902 63.1716 228.532 65.4587L239.669 76.5789C241.674 76.4087 250.551 75.2241 259.105 66.6844C259.195 66.5001 261.279 64.962 259.575 63.2617C258.762 62.4506 257.416 62.4646 256.586 63.2947C256.489 63.395 256.374 63.4751 256.246 63.5302C256.118 63.5854 255.981 63.6145 255.841 63.6159C255.702 63.6173 255.564 63.5909 255.435 63.5384C255.307 63.4858 255.189 63.4081 255.091 63.3097C254.992 63.2117 254.915 63.0949 254.862 62.9662C254.809 62.8376 254.783 62.6996 254.784 62.5606C254.786 62.4215 254.815 62.2841 254.87 62.1565C254.925 62.0289 255.005 61.9137 255.106 61.8177L258.128 58.7996C259.664 57.2655 258.217 54.6779 256.073 55.2998L253.599 57.4147C253.386 57.5988 253.11 57.6913 252.83 57.6719C252.55 57.6526 252.289 57.5231 252.103 57.3115C251.72 56.8679 251.802 56.196 252.238 55.8175C260.882 48.2451 259.619 49.1584 265.18 43.9532C267.258 42.2259 264.645 39.1707 262.598 40.9191L249.145 52.9996C248.952 53.1637 248.707 53.2526 248.454 53.2498C248.201 53.2471 247.958 53.1529 247.769 52.9846C247.324 52.6011 247.314 52.0493 247.605 51.6127L256.988 37.0478C258.36 35.1932 255.66 33.1324 254.216 35.003L240.342 54.3765C240.263 54.4905 240.162 54.5875 240.045 54.6621C239.928 54.7367 239.797 54.7873 239.661 54.8111C239.524 54.8348 239.384 54.8312 239.249 54.8005C239.114 54.7697 238.987 54.7124 238.874 54.6319C238.762 54.554 238.666 54.4544 238.593 54.339C238.52 54.2235 238.471 54.0945 238.449 53.9597C238.426 53.8248 238.431 53.6869 238.463 53.554C238.495 53.421 238.554 53.2959 238.635 53.1859Z" fill="#8A90AC"/>
<path d="M151.5 270C181.114 270 205.12 245.425 205.12 215.11C205.12 184.795 181.114 160.22 151.5 160.22C121.886 160.22 97.8799 184.795 97.8799 215.11C97.8799 245.425 121.886 270 151.5 270Z" fill="#B1B4C5"/>
<path d="M151.5 265.133C181.114 265.133 205.12 241.648 205.12 212.676C205.12 183.705 181.114 160.22 151.5 160.22C121.886 160.22 97.8799 183.705 97.8799 212.676C97.8799 241.648 121.886 265.133 151.5 265.133Z" fill="url(#paint2_linear_17_3)"/>
<path d="M151.501 254.858C174.235 254.858 192.664 236.457 192.664 213.758C192.664 191.059 174.235 172.658 151.501 172.658C128.767 172.658 110.338 191.059 110.338 213.758C110.338 236.457 128.767 254.858 151.501 254.858Z" fill="#E1E4ED"/>
<path d="M167.446 207.856C166.972 201.851 160.247 202.463 160.247 202.463C157.409 197.447 152.975 201.081 152.975 201.081C149.569 196.163 145.298 200.72 145.298 200.72C137.934 199.923 138.219 205.961 138.219 205.961C138.047 207.881 139.258 213.819 139.258 213.819C138.165 210.396 135.795 213.237 135.795 213.237C132.882 217.745 135.075 220.214 135.075 220.214C139.017 224.846 147.417 230.408 147.417 230.408C150.459 232.155 149.172 233.712 149.172 233.712L167.569 230.664L167.993 227.165C170.789 218.682 167.446 207.855 167.446 207.855V207.856Z" fill="#8A90AC"/>
<path d="M140.453 28.5027C140.453 29.3261 140.184 29.9544 139.647 30.3877C139.118 30.8124 138.433 31.0247 137.593 31.0247H134.681C134.637 31.0247 134.598 31.0117 134.564 30.9857C134.538 30.9511 134.525 30.9121 134.525 30.8687V22.0807C134.525 22.0374 134.538 22.0027 134.564 21.9767C134.598 21.9421 134.637 21.9247 134.681 21.9247H137.398C138.325 21.9247 139.044 22.1327 139.556 22.5487C140.067 22.9561 140.323 23.5801 140.323 24.4207C140.323 25.2787 139.989 25.8984 139.322 26.2797C139.278 26.3057 139.274 26.3317 139.309 26.3577C140.071 26.7911 140.453 27.5061 140.453 28.5027ZM136.423 23.4977C136.379 23.4977 136.358 23.5194 136.358 23.5627V25.6037C136.358 25.6471 136.379 25.6687 136.423 25.6687H137.411C137.757 25.6687 138.03 25.5734 138.23 25.3827C138.429 25.1921 138.529 24.9277 138.529 24.5897C138.529 24.2431 138.429 23.9744 138.23 23.7837C138.039 23.5931 137.766 23.4977 137.411 23.4977H136.423ZM137.515 29.4387C137.861 29.4387 138.13 29.3391 138.321 29.1397C138.52 28.9317 138.62 28.6414 138.62 28.2687C138.62 27.8961 138.52 27.6057 138.321 27.3977C138.13 27.1811 137.861 27.0727 137.515 27.0727H136.423C136.379 27.0727 136.358 27.0944 136.358 27.1377V29.3737C136.358 29.4171 136.379 29.4387 136.423 29.4387H137.515ZM147.134 23.3417C147.134 23.3851 147.117 23.4241 147.082 23.4587C147.056 23.4847 147.021 23.4977 146.978 23.4977H143.494C143.451 23.4977 143.429 23.5194 143.429 23.5627V25.5907C143.429 25.6341 143.451 25.6557 143.494 25.6557H145.665C145.708 25.6557 145.743 25.6731 145.769 25.7077C145.804 25.7337 145.821 25.7684 145.821 25.8117V27.0727C145.821 27.1161 145.804 27.1551 145.769 27.1897C145.743 27.2157 145.708 27.2287 145.665 27.2287H143.494C143.451 27.2287 143.429 27.2504 143.429 27.2937V29.3867C143.429 29.4301 143.451 29.4517 143.494 29.4517H146.978C147.021 29.4517 147.056 29.4691 147.082 29.5037C147.117 29.5297 147.134 29.5644 147.134 29.6077V30.8687C147.134 30.9121 147.117 30.9511 147.082 30.9857C147.056 31.0117 147.021 31.0247 146.978 31.0247H141.752C141.709 31.0247 141.67 31.0117 141.635 30.9857C141.609 30.9511 141.596 30.9121 141.596 30.8687V22.0807C141.596 22.0374 141.609 22.0027 141.635 21.9767C141.67 21.9421 141.709 21.9247 141.752 21.9247H146.978C147.021 21.9247 147.056 21.9421 147.082 21.9767C147.117 22.0027 147.134 22.0374 147.134 22.0807V23.3417ZM153.147 31.0247C153.052 31.0247 152.991 30.9814 152.965 30.8947L152.666 29.6207C152.658 29.5861 152.636 29.5687 152.601 29.5687H150.17C150.136 29.5687 150.114 29.5861 150.105 29.6207L149.806 30.8947C149.78 30.9814 149.724 31.0247 149.637 31.0247H148.064C147.952 31.0247 147.908 30.9684 147.934 30.8557L150.274 22.0547C150.3 21.9681 150.361 21.9247 150.456 21.9247H152.341C152.437 21.9247 152.497 21.9681 152.523 22.0547L154.863 30.8557L154.876 30.9077C154.876 30.9857 154.829 31.0247 154.733 31.0247H153.147ZM150.456 28.0737C150.448 28.0997 150.452 28.1214 150.469 28.1387C150.487 28.1474 150.504 28.1517 150.521 28.1517H152.237C152.255 28.1517 152.272 28.1474 152.289 28.1387C152.307 28.1214 152.311 28.0997 152.302 28.0737L151.405 24.3037C151.397 24.2691 151.384 24.2517 151.366 24.2517C151.349 24.2517 151.336 24.2691 151.327 24.3037L150.456 28.0737ZM160.543 21.9247C160.586 21.9247 160.621 21.9421 160.647 21.9767C160.682 22.0027 160.699 22.0374 160.699 22.0807V23.3547C160.699 23.3981 160.682 23.4371 160.647 23.4717C160.621 23.4977 160.586 23.5107 160.543 23.5107H158.567C158.524 23.5107 158.502 23.5324 158.502 23.5757V30.8687C158.502 30.9121 158.485 30.9511 158.45 30.9857C158.424 31.0117 158.389 31.0247 158.346 31.0247H156.825C156.782 31.0247 156.743 31.0117 156.708 30.9857C156.682 30.9511 156.669 30.9121 156.669 30.8687V23.5757C156.669 23.5324 156.647 23.5107 156.604 23.5107H154.693C154.65 23.5107 154.611 23.4977 154.576 23.4717C154.55 23.4371 154.537 23.3981 154.537 23.3547V22.0807C154.537 22.0374 154.55 22.0027 154.576 21.9767C154.611 21.9421 154.65 21.9247 154.693 21.9247H160.543ZM164.423 31.1287C163.825 31.1287 163.3 31.0247 162.85 30.8167C162.399 30.6001 162.048 30.3011 161.797 29.9197C161.554 29.5297 161.433 29.0834 161.433 28.5807V28.2427C161.433 28.1994 161.446 28.1647 161.472 28.1387C161.506 28.1041 161.545 28.0867 161.589 28.0867H163.084C163.127 28.0867 163.162 28.1041 163.188 28.1387C163.222 28.1647 163.24 28.1994 163.24 28.2427V28.4897C163.24 28.7931 163.352 29.0487 163.578 29.2567C163.803 29.4561 164.106 29.5557 164.488 29.5557C164.826 29.5557 165.081 29.4691 165.255 29.2957C165.437 29.1224 165.528 28.9014 165.528 28.6327C165.528 28.4334 165.471 28.2644 165.359 28.1257C165.246 27.9784 165.086 27.8441 164.878 27.7227C164.678 27.5927 164.366 27.4194 163.942 27.2027C163.422 26.9427 162.997 26.7001 162.668 26.4747C162.338 26.2494 162.057 25.9591 161.823 25.6037C161.589 25.2484 161.472 24.8194 161.472 24.3167C161.472 23.8141 161.589 23.3764 161.823 23.0037C162.065 22.6224 162.403 22.3321 162.837 22.1327C163.27 21.9247 163.764 21.8207 164.319 21.8207C164.899 21.8207 165.415 21.9334 165.866 22.1587C166.316 22.3754 166.667 22.6831 166.919 23.0817C167.17 23.4804 167.296 23.9397 167.296 24.4597V24.7197C167.296 24.7631 167.278 24.8021 167.244 24.8367C167.218 24.8627 167.183 24.8757 167.14 24.8757H165.645C165.601 24.8757 165.562 24.8627 165.528 24.8367C165.502 24.8021 165.489 24.7631 165.489 24.7197V24.4857C165.489 24.1737 165.38 23.9137 165.164 23.7057C164.947 23.4977 164.652 23.3937 164.28 23.3937C163.968 23.3937 163.721 23.4761 163.539 23.6407C163.365 23.7967 163.279 24.0177 163.279 24.3037C163.279 24.5031 163.331 24.6764 163.435 24.8237C163.539 24.9711 163.699 25.1141 163.916 25.2527C164.132 25.3827 164.462 25.5561 164.904 25.7727L165.177 25.9287C165.679 26.2061 166.069 26.4487 166.347 26.6567C166.633 26.8561 166.871 27.1117 167.062 27.4237C167.252 27.7357 167.348 28.1127 167.348 28.5547C167.348 29.3434 167.079 29.9717 166.542 30.4397C166.013 30.8991 165.307 31.1287 164.423 31.1287Z" fill="#B1B4C5"/>
<path d="M46.5679 144.662C46.5679 145.485 46.2993 146.114 45.7619 146.547C45.2333 146.972 44.5486 147.184 43.7079 147.184H40.7959C40.7526 147.184 40.7136 147.171 40.6789 147.145C40.6529 147.11 40.6399 147.071 40.6399 147.028V138.24C40.6399 138.197 40.6529 138.162 40.6789 138.136C40.7136 138.101 40.7526 138.084 40.7959 138.084H43.5129C44.4403 138.084 45.1596 138.292 45.6709 138.708C46.1823 139.115 46.4379 139.739 46.4379 140.58C46.4379 141.438 46.1043 142.058 45.4369 142.439C45.3936 142.465 45.3893 142.491 45.4239 142.517C46.1866 142.95 46.5679 143.665 46.5679 144.662ZM42.5379 139.657C42.4946 139.657 42.4729 139.679 42.4729 139.722V141.763C42.4729 141.806 42.4946 141.828 42.5379 141.828H43.5259C43.8726 141.828 44.1456 141.733 44.3449 141.542C44.5443 141.351 44.6439 141.087 44.6439 140.749C44.6439 140.402 44.5443 140.134 44.3449 139.943C44.1543 139.752 43.8813 139.657 43.5259 139.657H42.5379ZM43.6299 145.598C43.9766 145.598 44.2453 145.498 44.4359 145.299C44.6353 145.091 44.7349 144.801 44.7349 144.428C44.7349 144.055 44.6353 143.765 44.4359 143.557C44.2453 143.34 43.9766 143.232 43.6299 143.232H42.5379C42.4946 143.232 42.4729 143.254 42.4729 143.297V145.533C42.4729 145.576 42.4946 145.598 42.5379 145.598H43.6299ZM53.2492 139.501C53.2492 139.544 53.2319 139.583 53.1972 139.618C53.1712 139.644 53.1366 139.657 53.0932 139.657H49.6092C49.5659 139.657 49.5442 139.679 49.5442 139.722V141.75C49.5442 141.793 49.5659 141.815 49.6092 141.815H51.7802C51.8236 141.815 51.8582 141.832 51.8842 141.867C51.9189 141.893 51.9362 141.928 51.9362 141.971V143.232C51.9362 143.275 51.9189 143.314 51.8842 143.349C51.8582 143.375 51.8236 143.388 51.7802 143.388H49.6092C49.5659 143.388 49.5442 143.41 49.5442 143.453V145.546C49.5442 145.589 49.5659 145.611 49.6092 145.611H53.0932C53.1366 145.611 53.1712 145.628 53.1972 145.663C53.2319 145.689 53.2492 145.724 53.2492 145.767V147.028C53.2492 147.071 53.2319 147.11 53.1972 147.145C53.1712 147.171 53.1366 147.184 53.0932 147.184H47.8672C47.8239 147.184 47.7849 147.171 47.7502 147.145C47.7242 147.11 47.7112 147.071 47.7112 147.028V138.24C47.7112 138.197 47.7242 138.162 47.7502 138.136C47.7849 138.101 47.8239 138.084 47.8672 138.084H53.0932C53.1366 138.084 53.1712 138.101 53.1972 138.136C53.2319 138.162 53.2492 138.197 53.2492 138.24V139.501ZM59.2624 147.184C59.1671 147.184 59.1064 147.141 59.0804 147.054L58.7814 145.78C58.7728 145.745 58.7511 145.728 58.7164 145.728H56.2854C56.2508 145.728 56.2291 145.745 56.2204 145.78L55.9214 147.054C55.8954 147.141 55.8391 147.184 55.7524 147.184H54.1794C54.0668 147.184 54.0234 147.128 54.0494 147.015L56.3894 138.214C56.4154 138.127 56.4761 138.084 56.5714 138.084H58.4564C58.5518 138.084 58.6124 138.127 58.6384 138.214L60.9784 147.015L60.9914 147.067C60.9914 147.145 60.9438 147.184 60.8484 147.184H59.2624ZM56.5714 144.233C56.5628 144.259 56.5671 144.281 56.5844 144.298C56.6018 144.307 56.6191 144.311 56.6364 144.311H58.3524C58.3698 144.311 58.3871 144.307 58.4044 144.298C58.4218 144.281 58.4261 144.259 58.4174 144.233L57.5204 140.463C57.5118 140.428 57.4988 140.411 57.4814 140.411C57.4641 140.411 57.4511 140.428 57.4424 140.463L56.5714 144.233ZM66.6582 138.084C66.7015 138.084 66.7362 138.101 66.7622 138.136C66.7969 138.162 66.8142 138.197 66.8142 138.24V139.514C66.8142 139.557 66.7969 139.596 66.7622 139.631C66.7362 139.657 66.7015 139.67 66.6582 139.67H64.6822C64.6389 139.67 64.6172 139.692 64.6172 139.735V147.028C64.6172 147.071 64.5999 147.11 64.5652 147.145C64.5392 147.171 64.5045 147.184 64.4612 147.184H62.9402C62.8969 147.184 62.8579 147.171 62.8232 147.145C62.7972 147.11 62.7842 147.071 62.7842 147.028V139.735C62.7842 139.692 62.7625 139.67 62.7192 139.67H60.8082C60.7649 139.67 60.7259 139.657 60.6912 139.631C60.6652 139.596 60.6522 139.557 60.6522 139.514V138.24C60.6522 138.197 60.6652 138.162 60.6912 138.136C60.7259 138.101 60.7649 138.084 60.8082 138.084H66.6582ZM70.5379 147.288C69.9399 147.288 69.4156 147.184 68.9649 146.976C68.5142 146.759 68.1632 146.46 67.9119 146.079C67.6692 145.689 67.5479 145.243 67.5479 144.74V144.402C67.5479 144.359 67.5609 144.324 67.5869 144.298C67.6216 144.263 67.6606 144.246 67.7039 144.246H69.1989C69.2422 144.246 69.2769 144.263 69.3029 144.298C69.3376 144.324 69.3549 144.359 69.3549 144.402V144.649C69.3549 144.952 69.4676 145.208 69.6929 145.416C69.9182 145.615 70.2216 145.715 70.6029 145.715C70.9409 145.715 71.1966 145.628 71.3699 145.455C71.5519 145.282 71.6429 145.061 71.6429 144.792C71.6429 144.593 71.5866 144.424 71.4739 144.285C71.3612 144.138 71.2009 144.003 70.9929 143.882C70.7936 143.752 70.4816 143.579 70.0569 143.362C69.5369 143.102 69.1122 142.859 68.7829 142.634C68.4536 142.409 68.1719 142.118 67.9379 141.763C67.7039 141.408 67.5869 140.979 67.5869 140.476C67.5869 139.973 67.7039 139.536 67.9379 139.163C68.1806 138.782 68.5186 138.491 68.9519 138.292C69.3852 138.084 69.8792 137.98 70.4339 137.98C71.0146 137.98 71.5302 138.093 71.9809 138.318C72.4316 138.535 72.7826 138.842 73.0339 139.241C73.2852 139.64 73.4109 140.099 73.4109 140.619V140.879C73.4109 140.922 73.3936 140.961 73.3589 140.996C73.3329 141.022 73.2982 141.035 73.2549 141.035H71.7599C71.7166 141.035 71.6776 141.022 71.6429 140.996C71.6169 140.961 71.6039 140.922 71.6039 140.879V140.645C71.6039 140.333 71.4956 140.073 71.2789 139.865C71.0622 139.657 70.7676 139.553 70.3949 139.553C70.0829 139.553 69.8359 139.635 69.6539 139.8C69.4806 139.956 69.3939 140.177 69.3939 140.463C69.3939 140.662 69.4459 140.836 69.5499 140.983C69.6539 141.13 69.8142 141.273 70.0309 141.412C70.2476 141.542 70.5769 141.715 71.0189 141.932L71.2919 142.088C71.7946 142.365 72.1846 142.608 72.4619 142.816C72.7479 143.015 72.9862 143.271 73.1769 143.583C73.3676 143.895 73.4629 144.272 73.4629 144.714C73.4629 145.503 73.1942 146.131 72.6569 146.599C72.1282 147.058 71.4219 147.288 70.5379 147.288Z" fill="#B1B4C5"/>
<path d="M241.329 144.662C241.329 145.485 241.06 146.114 240.523 146.547C239.994 146.972 239.309 147.184 238.469 147.184H235.557C235.513 147.184 235.474 147.171 235.44 147.145C235.414 147.11 235.401 147.071 235.401 147.028V138.24C235.401 138.197 235.414 138.162 235.44 138.136C235.474 138.101 235.513 138.084 235.557 138.084H238.274C239.201 138.084 239.92 138.292 240.432 138.708C240.943 139.115 241.199 139.739 241.199 140.58C241.199 141.438 240.865 142.058 240.198 142.439C240.154 142.465 240.15 142.491 240.185 142.517C240.947 142.95 241.329 143.665 241.329 144.662ZM237.299 139.657C237.255 139.657 237.234 139.679 237.234 139.722V141.763C237.234 141.806 237.255 141.828 237.299 141.828H238.287C238.633 141.828 238.906 141.733 239.106 141.542C239.305 141.351 239.405 141.087 239.405 140.749C239.405 140.402 239.305 140.134 239.106 139.943C238.915 139.752 238.642 139.657 238.287 139.657H237.299ZM238.391 145.598C238.737 145.598 239.006 145.498 239.197 145.299C239.396 145.091 239.496 144.801 239.496 144.428C239.496 144.055 239.396 143.765 239.197 143.557C239.006 143.34 238.737 143.232 238.391 143.232H237.299C237.255 143.232 237.234 143.254 237.234 143.297V145.533C237.234 145.576 237.255 145.598 237.299 145.598H238.391ZM248.01 139.501C248.01 139.544 247.993 139.583 247.958 139.618C247.932 139.644 247.897 139.657 247.854 139.657H244.37C244.327 139.657 244.305 139.679 244.305 139.722V141.75C244.305 141.793 244.327 141.815 244.37 141.815H246.541C246.584 141.815 246.619 141.832 246.645 141.867C246.68 141.893 246.697 141.928 246.697 141.971V143.232C246.697 143.275 246.68 143.314 246.645 143.349C246.619 143.375 246.584 143.388 246.541 143.388H244.37C244.327 143.388 244.305 143.41 244.305 143.453V145.546C244.305 145.589 244.327 145.611 244.37 145.611H247.854C247.897 145.611 247.932 145.628 247.958 145.663C247.993 145.689 248.01 145.724 248.01 145.767V147.028C248.01 147.071 247.993 147.11 247.958 147.145C247.932 147.171 247.897 147.184 247.854 147.184H242.628C242.585 147.184 242.546 147.171 242.511 147.145C242.485 147.11 242.472 147.071 242.472 147.028V138.24C242.472 138.197 242.485 138.162 242.511 138.136C242.546 138.101 242.585 138.084 242.628 138.084H247.854C247.897 138.084 247.932 138.101 247.958 138.136C247.993 138.162 248.01 138.197 248.01 138.24V139.501ZM254.023 147.184C253.928 147.184 253.867 147.141 253.841 147.054L253.542 145.78C253.534 145.745 253.512 145.728 253.477 145.728H251.046C251.012 145.728 250.99 145.745 250.981 145.78L250.682 147.054C250.656 147.141 250.6 147.184 250.513 147.184H248.94C248.828 147.184 248.784 147.128 248.81 147.015L251.15 138.214C251.176 138.127 251.237 138.084 251.332 138.084H253.217C253.313 138.084 253.373 138.127 253.399 138.214L255.739 147.015L255.752 147.067C255.752 147.145 255.705 147.184 255.609 147.184H254.023ZM251.332 144.233C251.324 144.259 251.328 144.281 251.345 144.298C251.363 144.307 251.38 144.311 251.397 144.311H253.113C253.131 144.311 253.148 144.307 253.165 144.298C253.183 144.281 253.187 144.259 253.178 144.233L252.281 140.463C252.273 140.428 252.26 140.411 252.242 140.411C252.225 140.411 252.212 140.428 252.203 140.463L251.332 144.233ZM261.419 138.084C261.462 138.084 261.497 138.101 261.523 138.136C261.558 138.162 261.575 138.197 261.575 138.24V139.514C261.575 139.557 261.558 139.596 261.523 139.631C261.497 139.657 261.462 139.67 261.419 139.67H259.443C259.4 139.67 259.378 139.692 259.378 139.735V147.028C259.378 147.071 259.361 147.11 259.326 147.145C259.3 147.171 259.265 147.184 259.222 147.184H257.701C257.658 147.184 257.619 147.171 257.584 147.145C257.558 147.11 257.545 147.071 257.545 147.028V139.735C257.545 139.692 257.523 139.67 257.48 139.67H255.569C255.526 139.67 255.487 139.657 255.452 139.631C255.426 139.596 255.413 139.557 255.413 139.514V138.24C255.413 138.197 255.426 138.162 255.452 138.136C255.487 138.101 255.526 138.084 255.569 138.084H261.419ZM265.299 147.288C264.701 147.288 264.176 147.184 263.726 146.976C263.275 146.759 262.924 146.46 262.673 146.079C262.43 145.689 262.309 145.243 262.309 144.74V144.402C262.309 144.359 262.322 144.324 262.348 144.298C262.382 144.263 262.421 144.246 262.465 144.246H263.96C264.003 144.246 264.038 144.263 264.064 144.298C264.098 144.324 264.116 144.359 264.116 144.402V144.649C264.116 144.952 264.228 145.208 264.454 145.416C264.679 145.615 264.982 145.715 265.364 145.715C265.702 145.715 265.957 145.628 266.131 145.455C266.313 145.282 266.404 145.061 266.404 144.792C266.404 144.593 266.347 144.424 266.235 144.285C266.122 144.138 265.962 144.003 265.754 143.882C265.554 143.752 265.242 143.579 264.818 143.362C264.298 143.102 263.873 142.859 263.544 142.634C263.214 142.409 262.933 142.118 262.699 141.763C262.465 141.408 262.348 140.979 262.348 140.476C262.348 139.973 262.465 139.536 262.699 139.163C262.941 138.782 263.279 138.491 263.713 138.292C264.146 138.084 264.64 137.98 265.195 137.98C265.775 137.98 266.291 138.093 266.742 138.318C267.192 138.535 267.543 138.842 267.795 139.241C268.046 139.64 268.172 140.099 268.172 140.619V140.879C268.172 140.922 268.154 140.961 268.12 140.996C268.094 141.022 268.059 141.035 268.016 141.035H266.521C266.477 141.035 266.438 141.022 266.404 140.996C266.378 140.961 266.365 140.922 266.365 140.879V140.645C266.365 140.333 266.256 140.073 266.04 139.865C265.823 139.657 265.528 139.553 265.156 139.553C264.844 139.553 264.597 139.635 264.415 139.8C264.241 139.956 264.155 140.177 264.155 140.463C264.155 140.662 264.207 140.836 264.311 140.983C264.415 141.13 264.575 141.273 264.792 141.412C265.008 141.542 265.338 141.715 265.78 141.932L266.053 142.088C266.555 142.365 266.945 142.608 267.223 142.816C267.509 143.015 267.747 143.271 267.938 143.583C268.128 143.895 268.224 144.272 268.224 144.714C268.224 145.503 267.955 146.131 267.418 146.599C266.889 147.058 266.183 147.288 265.299 147.288Z" fill="#B1B4C5"/>
<path d="M128.842 49.0673H174.785C175.889 49.0673 176.783 49.9639 176.783 51.07C176.783 52.1761 175.889 53.0727 174.785 53.0727H128.842C127.739 53.0727 126.844 52.1761 126.844 51.07C126.844 49.9639 127.739 49.0673 128.842 49.0673Z" fill="#B1B4C5"/>
<path fill-rule="evenodd" clip-rule="evenodd" d="M134.871 41.0713L126.292 49.8113C125.577 50.5393 125.583 51.7099 126.305 52.4309C126.476 52.6016 126.679 52.7368 126.902 52.8286C127.126 52.9204 127.365 52.9671 127.606 52.9659C127.847 52.9647 128.086 52.9156 128.309 52.8216C128.531 52.7275 128.733 52.5903 128.902 52.4178L137.481 43.6779C137.825 43.3281 138.016 42.8562 138.014 42.3654C138.011 41.8745 137.815 41.4046 137.468 41.0583C137.297 40.8875 137.094 40.7523 136.871 40.6605C136.648 40.5687 136.409 40.5221 136.167 40.5233C135.926 40.5245 135.687 40.5735 135.465 40.6676C135.242 40.7616 135.041 40.8988 134.871 41.0713Z" fill="#B1B4C5"/>
<path fill-rule="evenodd" clip-rule="evenodd" d="M137.481 58.4621L128.902 49.7221C128.733 49.5497 128.531 49.4124 128.309 49.3184C128.086 49.2243 127.847 49.1753 127.606 49.1741C127.365 49.1729 127.126 49.2195 126.902 49.3113C126.679 49.4032 126.476 49.5383 126.305 49.7091C125.583 50.4301 125.577 51.6007 126.292 52.3287L134.871 61.0687C135.041 61.2411 135.242 61.3783 135.465 61.4724C135.687 61.5664 135.926 61.6155 136.167 61.6167C136.409 61.6179 136.648 61.5712 136.871 61.4794C137.094 61.3876 137.297 61.2524 137.468 61.0817C137.815 60.7353 138.011 60.2654 138.014 59.7746C138.016 59.2837 137.825 58.8119 137.481 58.4621Z" fill="#B1B4C5"/>
<path d="M107.848 157.385L81.4958 119.652C80.8631 118.746 81.0827 117.497 81.9864 116.863C82.8901 116.228 84.1357 116.448 84.7684 117.354L111.121 155.087C111.753 155.993 111.534 157.242 110.63 157.876C109.726 158.511 108.481 158.291 107.848 157.385Z" fill="#B1B4C5"/>
<path fill-rule="evenodd" clip-rule="evenodd" d="M97.8566 157.019L109.918 159.052C110.923 159.222 111.876 158.545 112.051 157.539C112.093 157.3 112.087 157.056 112.034 156.82C111.98 156.584 111.881 156.361 111.742 156.163C111.603 155.966 111.426 155.798 111.221 155.669C111.017 155.54 110.789 155.454 110.551 155.413L98.4893 153.38C98.0065 153.299 97.5112 153.412 97.1115 153.696C96.7119 153.979 96.4404 154.41 96.3565 154.894C96.315 155.132 96.321 155.376 96.3741 155.612C96.4271 155.848 96.5262 156.071 96.6656 156.269C96.8051 156.466 96.982 156.634 97.1864 156.763C97.3908 156.892 97.6186 156.979 97.8566 157.019Z" fill="#B1B4C5"/>
<path fill-rule="evenodd" clip-rule="evenodd" d="M110.568 144.9L108.349 156.96C108.305 157.198 108.308 157.442 108.359 157.678C108.41 157.915 108.507 158.139 108.644 158.338C108.782 158.537 108.957 158.707 109.16 158.837C109.363 158.968 109.59 159.057 109.827 159.1C110.831 159.279 111.791 158.613 111.975 157.608L114.195 145.549C114.239 145.311 114.235 145.067 114.185 144.83C114.134 144.593 114.037 144.369 113.9 144.17C113.762 143.971 113.587 143.802 113.384 143.671C113.181 143.54 112.954 143.451 112.716 143.409C112.234 143.322 111.738 143.431 111.335 143.71C110.933 143.99 110.657 144.418 110.568 144.9Z" fill="#B1B4C5"/>
<path d="M222.707 118.995L196.355 156.728C195.722 157.634 195.941 158.882 196.845 159.517C197.749 160.151 198.994 159.931 199.627 159.025L225.979 121.292C226.612 120.386 226.393 119.137 225.489 118.503C224.585 117.869 223.34 118.089 222.707 118.995Z" fill="#B1B4C5"/>
<path fill-rule="evenodd" clip-rule="evenodd" d="M212.715 119.361L224.777 117.327C225.782 117.158 226.735 117.834 226.91 118.841C226.951 119.079 226.945 119.323 226.892 119.559C226.839 119.795 226.74 120.019 226.601 120.216C226.461 120.414 226.284 120.582 226.08 120.71C225.876 120.839 225.648 120.926 225.41 120.966L213.348 122.999C212.865 123.08 212.37 122.967 211.97 122.684C211.571 122.4 211.299 121.969 211.215 121.486C211.174 121.247 211.18 121.003 211.233 120.767C211.286 120.531 211.385 120.308 211.524 120.11C211.664 119.913 211.841 119.745 212.045 119.616C212.25 119.488 212.477 119.401 212.715 119.361Z" fill="#B1B4C5"/>
<path fill-rule="evenodd" clip-rule="evenodd" d="M225.427 131.479L223.207 119.42C223.164 119.182 223.167 118.937 223.218 118.701C223.269 118.464 223.365 118.24 223.503 118.041C223.64 117.842 223.816 117.673 224.019 117.542C224.222 117.411 224.449 117.322 224.686 117.28C225.689 117.1 226.649 117.766 226.834 118.771L229.054 130.831C229.098 131.069 229.094 131.313 229.043 131.549C228.993 131.786 228.896 132.01 228.758 132.209C228.621 132.408 228.446 132.578 228.242 132.708C228.039 132.839 227.813 132.928 227.575 132.971C227.093 133.057 226.597 132.949 226.194 132.669C225.792 132.39 225.516 131.962 225.427 131.479Z" fill="#B1B4C5"/>
<defs>
<linearGradient id="paint0_linear_17_3" x1="5312.38" y1="0" x2="5312.38" y2="10491.4" gradientUnits="userSpaceOnUse">
<stop stop-color="white" stop-opacity="0.097"/>
<stop offset="1" stop-color="white" stop-opacity="0"/>
</linearGradient>
<linearGradient id="paint1_linear_17_3" x1="5557.78" y1="0" x2="5557.78" y2="10491.4" gradientUnits="userSpaceOnUse">
<stop stop-color="white" stop-opacity="0.097"/>
<stop offset="1" stop-color="white" stop-opacity="0"/>
</linearGradient>
<linearGradient id="paint2_linear_17_3" x1="5459.9" y1="160.22" x2="5459.9" y2="10651.6" gradientUnits="userSpaceOnUse">
<stop stop-color="white" stop-opacity="0.097"/>
<stop offset="1" stop-color="white" stop-opacity="0"/>
</linearGradient>
</defs>
</svg>
